<svg width="203" height="99" viewBox="0 0 203 99" fill="none" xmlns="http://www.w3.org/2000/svg">
<path d="M2.89773 55.8182V19.8182H10.0568V24.2159H10.3807C10.6989 23.5114 11.1591 22.7955 11.7614 22.0682C12.375 21.3295 13.1705 20.7159 14.1477 20.2273C15.1364 19.7273 16.3636 19.4773 17.8295 19.4773C19.7386 19.4773 21.5 19.9773 23.1136 20.9773C24.7273 21.9659 26.017 23.4602 26.983 25.4602C27.9489 27.4489 28.4318 29.9432 28.4318 32.9432C28.4318 35.8636 27.9602 38.3295 27.017 40.3409C26.0852 42.3409 24.8125 43.858 23.1989 44.892C21.5966 45.9148 19.8011 46.4261 17.8125 46.4261C16.4034 46.4261 15.2045 46.1932 14.2159 45.7273C13.2386 45.2614 12.4375 44.6761 11.8125 43.9716C11.1875 43.2557 10.7102 42.5341 10.3807 41.8068H10.1591V55.8182H2.89773ZM10.0057 32.9091C10.0057 34.4659 10.2216 35.8239 10.6534 36.983C11.0852 38.142 11.7102 39.0455 12.5284 39.6932C13.3466 40.3295 14.3409 40.6477 15.5114 40.6477C16.6932 40.6477 17.6932 40.3239 18.5114 39.6761C19.3295 39.017 19.9489 38.108 20.3693 36.9489C20.8011 35.7784 21.017 34.4318 21.017 32.9091C21.017 31.3977 20.8068 30.0682 20.3864 28.9205C19.9659 27.7727 19.3466 26.875 18.5284 26.2273C17.7102 25.5795 16.7045 25.2557 15.5114 25.2557C14.3295 25.2557 13.3295 25.5682 12.5114 26.1932C11.7045 26.8182 11.0852 27.7045 10.6534 28.8523C10.2216 30 10.0057 31.3523 10.0057 32.9091ZM40.7386 46.4943C39.0682 46.4943 37.5795 46.2045 36.2727 45.625C34.9659 45.0341 33.9318 44.1648 33.1705 43.017C32.4205 41.858 32.0455 40.4148 32.0455 38.6875C32.0455 37.233 32.3125 36.0114 32.8466 35.0227C33.3807 34.0341 34.108 33.2386 35.0284 32.6364C35.9489 32.0341 36.9943 31.5795 38.1648 31.2727C39.3466 30.9659 40.5852 30.75 41.8807 30.625C43.4034 30.4659 44.6307 30.3182 45.5625 30.1818C46.4943 30.0341 47.1705 29.8182 47.5909 29.5341C48.0114 29.25 48.2216 28.8295 48.2216 28.2727V28.1705C48.2216 27.0909 47.8807 26.2557 47.1989 25.6648C46.5284 25.0739 45.5739 24.7784 44.3352 24.7784C43.0284 24.7784 41.9886 25.0682 41.2159 25.6477C40.4432 26.2159 39.9318 26.9318 39.6818 27.7955L32.9659 27.25C33.3068 25.6591 33.9773 24.2841 34.9773 23.125C35.9773 21.9545 37.267 21.0568 38.8466 20.4318C40.4375 19.7955 42.2784 19.4773 44.3693 19.4773C45.8239 19.4773 47.2159 19.6477 48.5455 19.9886C49.8864 20.3295 51.0739 20.858 52.108 21.5739C53.1534 22.2898 53.9773 23.2102 54.5795 24.3352C55.1818 25.4489 55.483 26.7841 55.483 28.3409V46H48.5966V42.3693H48.392C47.9716 43.1875 47.4091 43.9091 46.7045 44.5341C46 45.1477 45.1534 45.6307 44.1648 45.983C43.1761 46.3239 42.0341 46.4943 40.7386 46.4943ZM42.8182 41.483C43.8864 41.483 44.8295 41.2727 45.6477 40.8523C46.4659 40.4205 47.108 39.8409 47.5739 39.1136C48.0398 38.3864 48.2727 37.5625 48.2727 36.642V33.8636C48.0455 34.0114 47.733 34.1477 47.3352 34.2727C46.9489 34.3864 46.5114 34.4943 46.0227 34.5966C45.5341 34.6875 45.0455 34.7727 44.5568 34.8523C44.0682 34.9205 43.625 34.983 43.2273 35.0398C42.375 35.1648 41.6307 35.3636 40.9943 35.6364C40.358 35.9091 39.8636 36.2784 39.5114 36.7443C39.1591 37.1989 38.983 37.767 38.983 38.4489C38.983 39.4375 39.3409 40.1932 40.0568 40.7159C40.7841 41.2273 41.7045 41.483 42.8182 41.483ZM64.6619 55.8182C63.7415 55.8182 62.8778 55.7443 62.071 55.5966C61.2756 55.4602 60.6165 55.2841 60.0938 55.0682L61.7301 49.6477C62.5824 49.9091 63.3494 50.0511 64.0312 50.0739C64.7244 50.0966 65.321 49.9375 65.821 49.5966C66.3324 49.2557 66.7472 48.6761 67.0653 47.858L67.4915 46.75L58.0994 19.8182H65.7358L71.1562 39.0455H71.429L76.9006 19.8182H84.5881L74.4119 48.8295C73.9233 50.2386 73.2585 51.4659 72.4176 52.5114C71.5881 53.5682 70.5369 54.3807 69.2642 54.9489C67.9915 55.5284 66.4574 55.8182 64.6619 55.8182Z" fill="white"/>
<path d="M119.241 23.3125H111.776C111.639 22.3466 111.361 21.4886 110.94 20.7386C110.52 19.9773 109.98 19.3295 109.321 18.7955C108.662 18.2614 107.901 17.8523 107.037 17.5682C106.185 17.2841 105.259 17.142 104.259 17.142C102.452 17.142 100.878 17.5909 99.5369 18.4886C98.196 19.375 97.1563 20.6705 96.4176 22.375C95.679 24.0682 95.3097 26.125 95.3097 28.5455C95.3097 31.0341 95.679 33.125 96.4176 34.8182C97.1676 36.5114 98.2131 37.7898 99.554 38.6534C100.895 39.517 102.446 39.9489 104.207 39.9489C105.196 39.9489 106.111 39.8182 106.952 39.5568C107.804 39.2955 108.56 38.9148 109.219 38.4148C109.878 37.9034 110.423 37.2841 110.855 36.5568C111.298 35.8295 111.605 35 111.776 34.0682L119.241 34.1023C119.048 35.7045 118.565 37.25 117.793 38.7386C117.031 40.2159 116.003 41.5398 114.707 42.7102C113.423 43.8693 111.889 44.7898 110.105 45.4716C108.332 46.142 106.327 46.4773 104.088 46.4773C100.974 46.4773 98.1903 45.7727 95.7358 44.3636C93.2926 42.9545 91.3608 40.9148 89.9403 38.2443C88.5312 35.5739 87.8267 32.3409 87.8267 28.5455C87.8267 24.7386 88.5426 21.5 89.9744 18.8295C91.4063 16.1591 93.3494 14.125 95.804 12.7273C98.2585 11.3182 101.02 10.6136 104.088 10.6136C106.111 10.6136 107.986 10.8977 109.713 11.4659C111.452 12.0341 112.991 12.8636 114.332 13.9545C115.673 15.0341 116.764 16.358 117.605 17.9261C118.457 19.4943 119.003 21.2898 119.241 23.3125ZM156.614 28.5455C156.614 32.3523 155.892 35.5909 154.449 38.2614C153.017 40.9318 151.063 42.9716 148.585 44.3807C146.119 45.7784 143.347 46.4773 140.267 46.4773C137.165 46.4773 134.381 45.7727 131.915 44.3636C129.449 42.9545 127.5 40.9148 126.068 38.2443C124.636 35.5739 123.92 32.3409 123.92 28.5455C123.92 24.7386 124.636 21.5 126.068 18.8295C127.5 16.1591 129.449 14.125 131.915 12.7273C134.381 11.3182 137.165 10.6136 140.267 10.6136C143.347 10.6136 146.119 11.3182 148.585 12.7273C151.063 14.125 153.017 16.1591 154.449 18.8295C155.892 21.5 156.614 24.7386 156.614 28.5455ZM149.131 28.5455C149.131 26.0795 148.761 24 148.023 22.3068C147.295 20.6136 146.267 19.3295 144.938 18.4545C143.608 17.5795 142.051 17.142 140.267 17.142C138.483 17.142 136.926 17.5795 135.597 18.4545C134.267 19.3295 133.233 20.6136 132.494 22.3068C131.767 24 131.403 26.0795 131.403 28.5455C131.403 31.0114 131.767 33.0909 132.494 34.7841C133.233 36.4773 134.267 37.7614 135.597 38.6364C136.926 39.5114 138.483 39.9489 140.267 39.9489C142.051 39.9489 143.608 39.5114 144.938 38.6364C146.267 37.7614 147.295 36.4773 148.023 34.7841C148.761 33.0909 149.131 31.0114 149.131 28.5455ZM162.081 11.0909H171.183L180.797 34.5455H181.206L190.82 11.0909H199.922V46H192.763V23.2784H192.473L183.439 45.8295H178.564L169.53 23.1932H169.24V46H162.081V11.0909Z" fill="#001C30"/>
<path d="M25.783 95H24.739L30.5185 84.0909H31.5838L33.7411 95H32.6971L30.8807 85.3853H30.8114L25.783 95ZM27.2319 90.8185H32.6438L32.4947 91.7134H27.0827L27.2319 90.8185ZM38.1729 84.0909L36.3619 95H35.4137L37.2248 84.0909H38.1729ZM41.63 84.0909L39.8189 95H38.8707L40.6818 84.0909H41.63ZM46.5572 95L47.9208 86.8182H48.8743L47.5107 95H46.5572ZM48.7411 85.396C48.5423 85.396 48.3736 85.3285 48.2351 85.1935C48.1001 85.0586 48.0344 84.8952 48.038 84.7035C48.0451 84.5224 48.1179 84.3661 48.2564 84.2347C48.3984 84.0998 48.5653 84.0323 48.7571 84.0323C48.956 84.0323 49.1246 84.1016 49.2631 84.2401C49.4016 84.375 49.4673 84.5384 49.4602 84.7301C49.4567 84.9112 49.3839 85.0675 49.2418 85.1989C49.0998 85.3303 48.9329 85.396 48.7411 85.396ZM51.8133 89.8864L50.9664 95H50.0182L51.3818 86.8182H52.3034L52.0903 88.1019H52.1755C52.4312 87.6829 52.7845 87.3473 53.2355 87.0952C53.6901 86.8395 54.2174 86.7116 54.8176 86.7116C55.3644 86.7116 55.8261 86.8271 56.2025 87.0579C56.5825 87.2852 56.8524 87.6207 57.0122 88.0646C57.1755 88.5085 57.2039 89.0536 57.0974 89.6999L56.2078 95H55.2597L56.1333 89.7585C56.2433 89.0909 56.1457 88.5618 55.8403 88.1712C55.5384 87.777 55.0715 87.5799 54.4394 87.5799C54.0097 87.5799 53.6102 87.6722 53.2409 87.8569C52.8751 88.0415 52.5661 88.3079 52.314 88.6559C52.0619 89.0004 51.895 89.4105 51.8133 89.8864ZM66.1408 95.1705C65.4235 95.1705 64.8198 94.9893 64.3297 94.6271C63.8397 94.2614 63.4934 93.7553 63.291 93.109C63.0886 92.4627 63.0549 91.717 63.1898 90.8718C63.3248 90.0479 63.5929 89.3235 63.9941 88.6985C64.399 88.07 64.8961 87.5817 65.4856 87.2337C66.0751 86.8821 66.7161 86.7063 67.4086 86.7063C68.1294 86.7063 68.7331 86.8892 69.2196 87.255C69.7097 87.6207 70.0559 88.1268 70.2583 88.7731C70.4643 89.4194 70.4998 90.1669 70.3649 91.0156C70.2299 91.8359 69.9601 92.5586 69.5552 93.1836C69.1504 93.805 68.6532 94.2915 68.0637 94.6431C67.4778 94.9947 66.8368 95.1705 66.1408 95.1705ZM66.1515 94.3022C66.7338 94.3022 67.2523 94.1477 67.7069 93.8388C68.165 93.5263 68.5431 93.1108 68.8414 92.5923C69.1397 92.0703 69.3404 91.4968 69.4434 90.8718C69.5392 90.2752 69.5286 89.7266 69.4114 89.2259C69.2942 88.7251 69.0687 88.3239 68.7349 88.022C68.4011 87.7202 67.9572 87.5692 67.4032 87.5692C66.8244 87.5692 66.3059 87.7273 65.8478 88.0433C65.3897 88.3558 65.0115 88.7749 64.7132 89.3004C64.415 89.8224 64.2161 90.3942 64.1167 91.0156C64.0172 91.6158 64.0243 92.1644 64.138 92.6616C64.2551 93.1587 64.4806 93.5565 64.8145 93.8548C65.1518 94.1531 65.5975 94.3022 66.1515 94.3022ZM73.5809 89.8864L72.7339 95H71.7858L73.1494 86.8182H74.0709L73.8579 88.1019H73.9431C74.1988 87.6829 74.5521 87.3473 75.0031 87.0952C75.4577 86.8395 75.985 86.7116 76.5851 86.7116C77.132 86.7116 77.5937 86.8271 77.9701 87.0579C78.3501 87.2852 78.6199 87.6207 78.7797 88.0646C78.9431 88.5085 78.9715 89.0536 78.865 89.6999L77.9754 95H77.0273L77.9008 89.7585C78.0109 89.0909 77.9133 88.5618 77.6079 88.1712C77.306 87.777 76.839 87.5799 76.2069 87.5799C75.7773 87.5799 75.3778 87.6722 75.0084 87.8569C74.6427 88.0415 74.3337 88.3079 74.0816 88.6559C73.8295 89.0004 73.6626 89.4105 73.5809 89.8864ZM83.7589 95.1705C82.9954 95.1705 82.3651 94.9929 81.8679 94.6378C81.3707 94.2791 81.0227 93.7837 80.8239 93.1516C80.625 92.516 80.5948 91.7844 80.7333 90.957C80.8718 90.1332 81.1452 89.4016 81.5536 88.7624C81.962 88.1197 82.4663 87.6172 83.0664 87.255C83.6665 86.8892 84.3182 86.7063 85.0213 86.7063C85.4652 86.7063 85.8807 86.788 86.2678 86.9513C86.6548 87.1112 86.9833 87.358 87.2532 87.6918C87.5266 88.022 87.7166 88.4393 87.8232 88.9435C87.9297 89.4442 87.9261 90.0373 87.8125 90.7227L87.7379 91.1914H81.3459L81.479 90.3551H86.907C86.9957 89.8295 86.9709 89.3572 86.8324 88.9382C86.6939 88.5192 86.4577 88.1871 86.1239 87.9421C85.7937 87.6935 85.3835 87.5692 84.8935 87.5692C84.3928 87.5692 83.9187 87.7095 83.4712 87.9901C83.0273 88.2706 82.6509 88.6364 82.342 89.0874C82.0366 89.5348 81.8395 90.0124 81.7507 90.5202L81.6442 91.1488C81.5305 91.8413 81.5447 92.4219 81.6868 92.8906C81.8288 93.3558 82.0863 93.7074 82.4592 93.9453C82.832 94.1832 83.3097 94.3022 83.892 94.3022C84.2827 94.3022 84.636 94.2418 84.9521 94.1211C85.2681 94.0004 85.5433 93.8388 85.7777 93.6364C86.0121 93.4304 86.2003 93.2049 86.3423 92.9599L87.1893 93.2528C87.0082 93.5973 86.7525 93.9151 86.4222 94.2063C86.0955 94.4975 85.7067 94.7319 85.2557 94.9094C84.8082 95.0835 84.3093 95.1705 83.7589 95.1705ZM93.4069 95L94.7705 86.8182H95.692L95.479 88.0753H95.5642C95.8021 87.6527 96.1324 87.3207 96.555 87.0792C96.9775 86.8342 97.4569 86.7116 97.9932 86.7116C98.5542 86.7116 98.9946 86.8448 99.3142 87.1112C99.6338 87.3739 99.8469 87.7362 99.9534 88.1978H100.023C100.278 87.7433 100.639 87.3828 101.104 87.1165C101.569 86.8466 102.1 86.7116 102.697 86.7116C103.453 86.7116 104.012 86.9513 104.375 87.4308C104.737 87.9102 104.842 88.6062 104.689 89.5188L103.773 95H102.824L103.741 89.5188C103.844 88.8725 103.76 88.3878 103.49 88.0646C103.22 87.7415 102.816 87.5799 102.276 87.5799C101.651 87.5799 101.134 87.7717 100.726 88.1552C100.321 88.5352 100.071 89.0217 99.9747 89.6147L99.0745 95H98.105L99.0372 89.4336C99.126 88.8796 99.0461 88.4322 98.7975 88.0913C98.5525 87.7504 98.1494 87.5799 97.5883 87.5799C97.2084 87.5799 96.8515 87.674 96.5177 87.8622C96.1874 88.0469 95.9069 88.3043 95.676 88.6346C95.4488 88.9613 95.2996 89.3359 95.2286 89.7585L94.355 95H93.4069ZM109.5 95.1705C108.783 95.1705 108.179 94.9893 107.689 94.6271C107.199 94.2614 106.853 93.7553 106.65 93.109C106.448 92.4627 106.414 91.717 106.549 90.8718C106.684 90.0479 106.952 89.3235 107.354 88.6985C107.758 88.07 108.256 87.5817 108.845 87.2337C109.434 86.8821 110.075 86.7063 110.768 86.7063C111.489 86.7063 112.093 86.8892 112.579 87.255C113.069 87.6207 113.415 88.1268 113.618 88.7731C113.824 89.4194 113.859 90.1669 113.724 91.0156C113.589 91.8359 113.319 92.5586 112.915 93.1836C112.51 93.805 112.013 94.2915 111.423 94.6431C110.837 94.9947 110.196 95.1705 109.5 95.1705ZM109.511 94.3022C110.093 94.3022 110.612 94.1477 111.066 93.8388C111.524 93.5263 111.903 93.1108 112.201 92.5923C112.499 92.0703 112.7 91.4968 112.803 90.8718C112.899 90.2752 112.888 89.7266 112.771 89.2259C112.654 88.7251 112.428 88.3239 112.094 88.022C111.76 87.7202 111.317 87.5692 110.763 87.5692C110.184 87.5692 109.665 87.7273 109.207 88.0433C108.749 88.3558 108.371 88.7749 108.073 89.3004C107.774 89.8224 107.575 90.3942 107.476 91.0156C107.377 91.6158 107.384 92.1644 107.497 92.6616C107.615 93.1587 107.84 93.5565 108.174 93.8548C108.511 94.1531 108.957 94.3022 109.511 94.3022ZM116.94 89.8864L116.093 95H115.145L116.509 86.8182H117.43L117.217 88.1019H117.302C117.558 87.6829 117.911 87.3473 118.362 87.0952C118.817 86.8395 119.344 86.7116 119.945 86.7116C120.491 86.7116 120.953 86.8271 121.329 87.0579C121.709 87.2852 121.979 87.6207 122.139 88.0646C122.302 88.5085 122.331 89.0536 122.224 89.6999L121.335 95H120.387L121.26 89.7585C121.37 89.0909 121.273 88.5618 120.967 88.1712C120.665 87.777 120.198 87.5799 119.566 87.5799C119.137 87.5799 118.737 87.6722 118.368 87.8569C118.002 88.0415 117.693 88.3079 117.441 88.6559C117.189 89.0004 117.022 89.4105 116.94 89.8864ZM127.118 95.1705C126.355 95.1705 125.724 94.9929 125.227 94.6378C124.73 94.2791 124.382 93.7837 124.183 93.1516C123.984 92.516 123.954 91.7844 124.093 90.957C124.231 90.1332 124.505 89.4016 124.913 88.7624C125.321 88.1197 125.826 87.6172 126.426 87.255C127.026 86.8892 127.678 86.7063 128.381 86.7063C128.825 86.7063 129.24 86.788 129.627 86.9513C130.014 87.1112 130.343 87.358 130.613 87.6918C130.886 88.022 131.076 88.4393 131.183 88.9435C131.289 89.4442 131.286 90.0373 131.172 90.7227L131.097 91.1914H124.705L124.838 90.3551H130.266C130.355 89.8295 130.33 89.3572 130.192 88.9382C130.053 88.5192 129.817 88.1871 129.483 87.9421C129.153 87.6935 128.743 87.5692 128.253 87.5692C127.752 87.5692 127.278 87.7095 126.831 87.9901C126.387 88.2706 126.01 88.6364 125.701 89.0874C125.396 89.5348 125.199 90.0124 125.11 90.5202L125.004 91.1488C124.89 91.8413 124.904 92.4219 125.046 92.8906C125.188 93.3558 125.446 93.7074 125.819 93.9453C126.191 94.1832 126.669 94.3022 127.251 94.3022C127.642 94.3022 127.995 94.2418 128.311 94.1211C128.627 94.0004 128.903 93.8388 129.137 93.6364C129.371 93.4304 129.56 93.2049 129.702 92.9599L130.549 93.2528C130.368 93.5973 130.112 93.9151 129.782 94.2063C129.455 94.4975 129.066 94.7319 128.615 94.9094C128.168 95.0835 127.669 95.1705 127.118 95.1705ZM132.458 98.0682C132.27 98.0682 132.096 98.0504 131.936 98.0149C131.78 97.9794 131.657 97.9403 131.569 97.8977L131.968 97.0614C132.267 97.1644 132.54 97.1964 132.789 97.1573C133.041 97.1218 133.28 97.0011 133.508 96.7951C133.735 96.5891 133.959 96.282 134.179 95.8736L134.626 95.0426L133.007 86.8182H133.992L135.271 93.7642H135.34L138.925 86.8182H139.996L134.962 96.2837C134.745 96.6921 134.506 97.0277 134.243 97.2905C133.983 97.5533 133.703 97.7486 133.401 97.8764C133.103 98.0043 132.789 98.0682 132.458 98.0682ZM146.97 95.1864C146.476 95.1864 146.041 95.0906 145.665 94.8988C145.288 94.7035 145.008 94.4229 144.823 94.0572C144.642 93.6879 144.592 93.2404 144.674 92.7148C144.745 92.31 144.88 91.9691 145.079 91.6921C145.281 91.4151 145.537 91.1879 145.846 91.0103C146.155 90.8292 146.51 90.6871 146.911 90.5842C147.312 90.4812 147.749 90.4031 148.221 90.3498C148.683 90.293 149.077 90.2433 149.404 90.2006C149.731 90.158 149.984 90.0906 150.166 89.9982C150.347 89.9059 150.455 89.7567 150.491 89.5508L150.522 89.359C150.615 88.8015 150.53 88.3629 150.267 88.0433C150.004 87.7202 149.564 87.5586 148.946 87.5586C148.356 87.5586 147.845 87.69 147.412 87.9528C146.982 88.212 146.662 88.5156 146.453 88.8636L145.611 88.5387C145.867 88.0913 146.181 87.7344 146.554 87.468C146.927 87.1982 147.326 87.0046 147.753 86.8874C148.179 86.7667 148.6 86.7063 149.015 86.7063C149.328 86.7063 149.645 86.7472 149.968 86.8288C150.292 86.9105 150.581 87.0526 150.837 87.255C151.096 87.4538 151.286 87.7326 151.407 88.0913C151.531 88.4464 151.549 88.8974 151.46 89.4442L150.533 95H149.585L149.803 93.7056H149.745C149.596 93.9471 149.39 94.1815 149.127 94.4087C148.868 94.636 148.557 94.8224 148.195 94.968C147.832 95.1136 147.424 95.1864 146.97 95.1864ZM147.209 94.3182C147.714 94.3182 148.17 94.2063 148.578 93.9826C148.99 93.7589 149.328 93.4624 149.59 93.093C149.857 92.7202 150.027 92.31 150.102 91.8626L150.299 90.68C150.221 90.7475 150.093 90.8079 149.915 90.8612C149.741 90.9144 149.544 90.9624 149.324 91.005C149.107 91.044 148.889 91.0778 148.669 91.1062C148.452 91.1346 148.26 91.1594 148.093 91.1808C147.621 91.2376 147.209 91.3263 146.858 91.4471C146.51 91.5678 146.231 91.7347 146.021 91.9478C145.812 92.1573 145.68 92.4272 145.627 92.7575C145.546 93.2546 145.654 93.6399 145.952 93.9134C146.254 94.1832 146.673 94.3182 147.209 94.3182ZM152.544 98.0682L154.43 86.8182H155.351L155.095 88.3789H155.207C155.356 88.1339 155.55 87.8817 155.788 87.6225C156.029 87.3633 156.329 87.1467 156.688 86.9727C157.05 86.7951 157.484 86.7063 157.988 86.7063C158.663 86.7063 159.222 86.8821 159.666 87.2337C160.113 87.5852 160.426 88.0788 160.603 88.7145C160.784 89.3501 160.804 90.0888 160.662 90.9304C160.523 91.7756 160.259 92.516 159.868 93.1516C159.478 93.7873 159 94.2827 158.435 94.6378C157.874 94.9929 157.26 95.1705 156.592 95.1705C156.099 95.1705 155.699 95.0817 155.394 94.9041C155.092 94.7266 154.861 94.5082 154.701 94.2489C154.541 93.9862 154.426 93.7305 154.355 93.4819H154.27L153.503 98.0682H152.544ZM154.685 90.9144C154.579 91.5749 154.579 92.1609 154.685 92.6722C154.792 93.18 155.007 93.5795 155.33 93.8707C155.653 94.1584 156.079 94.3022 156.608 94.3022C157.152 94.3022 157.636 94.1531 158.062 93.8548C158.489 93.5529 158.844 93.1463 159.128 92.6349C159.412 92.1236 159.607 91.5501 159.714 90.9144C159.813 90.2859 159.81 89.7195 159.703 89.2152C159.597 88.7109 159.383 88.3114 159.064 88.0167C158.744 87.7184 158.309 87.5692 157.759 87.5692C157.226 87.5692 156.747 87.7131 156.321 88.0007C155.898 88.2848 155.546 88.679 155.266 89.1832C154.985 89.6839 154.792 90.261 154.685 90.9144ZM161.553 98.0682L163.438 86.8182H164.36L164.104 88.3789H164.216C164.365 88.1339 164.559 87.8817 164.797 87.6225C165.038 87.3633 165.338 87.1467 165.697 86.9727C166.059 86.7951 166.492 86.7063 166.997 86.7063C167.671 86.7063 168.231 86.8821 168.675 87.2337C169.122 87.5852 169.434 88.0788 169.612 88.7145C169.793 89.3501 169.813 90.0888 169.671 90.9304C169.532 91.7756 169.268 92.516 168.877 93.1516C168.486 93.7873 168.009 94.2827 167.444 94.6378C166.883 94.9929 166.269 95.1705 165.601 95.1705C165.107 95.1705 164.708 95.0817 164.403 94.9041C164.101 94.7266 163.87 94.5082 163.71 94.2489C163.55 93.9862 163.435 93.7305 163.364 93.4819H163.279L162.512 98.0682H161.553ZM163.694 90.9144C163.588 91.5749 163.588 92.1609 163.694 92.6722C163.801 93.18 164.015 93.5795 164.339 93.8707C164.662 94.1584 165.088 94.3022 165.617 94.3022C166.16 94.3022 166.645 94.1531 167.071 93.8548C167.497 93.5529 167.852 93.1463 168.137 92.6349C168.421 92.1236 168.616 91.5501 168.722 90.9144C168.822 90.2859 168.818 89.7195 168.712 89.2152C168.605 88.7109 168.392 88.3114 168.073 88.0167C167.753 87.7184 167.318 87.5692 166.768 87.5692C166.235 87.5692 165.756 87.7131 165.329 88.0007C164.907 88.2848 164.555 88.679 164.275 89.1832C163.994 89.6839 163.801 90.261 163.694 90.9144Z" fill="white"/>
<rect x="3" y="67" width="95" height="7" rx="2" fill="#001C30"/>
<rect x="105" y="67" width="95" height="7" rx="2" fill="white"/>
</svg>
